<svg version="1.1" id="Layer_1" xmlns="http://www.w3.org/2000/svg" xmlns:xlink="http://www.w3.org/1999/xlink" x="0px" y="0px"
	 width="100%" viewBox="0 0 225 225" enable-background="new 0 0 225 225" xml:space="preserve">
<path fill="#FFFFFF" opacity="1.000000" stroke="none" 
	d="
M154.000000,226.000000 
	C102.666672,226.000000 51.833340,226.000000 1.000007,226.000000 
	C1.000005,151.000000 1.000005,76.000015 1.000002,1.000017 
	C75.999992,1.000011 150.999985,1.000011 225.999969,1.000006 
	C225.999985,75.999985 225.999985,150.999969 226.000000,225.999969 
	C202.166672,226.000000 178.333328,226.000000 154.000000,226.000000 
M113.278297,159.846786 
	C95.013184,149.128113 76.748070,138.409424 58.482952,127.690727 
	C58.209118,128.063293 57.935284,128.435867 57.661449,128.808426 
	C76.206184,154.817581 94.750916,180.826736 113.607933,207.273865 
	C114.324982,205.919144 114.760269,205.096771 115.766853,203.903366 
	C131.593353,181.530655 147.440628,159.172546 163.209274,136.759140 
	C164.558701,134.841064 165.385361,132.555206 166.454865,130.440201 
	C165.992386,130.079773 165.529892,129.719345 165.067398,129.358917 
	C148.034058,139.558960 131.000717,149.759003 113.278297,159.846786 
M114.776215,148.226318 
	C132.556686,137.688629 150.339447,127.154800 168.113419,116.606140 
	C169.592499,115.728317 171.832336,115.051994 169.294769,112.071556 
	C150.871460,81.518631 132.448151,50.965714 114.011551,19.843073 
	C113.748695,19.753397 113.412560,19.519962 113.240204,19.607821 
	C112.983215,19.738813 112.821045,20.083874 112.654060,20.359390 
	C96.963379,46.248928 81.247345,72.123192 65.613831,98.047226 
	C62.642567,102.974289 59.998848,108.098892 56.676949,113.562157 
	C57.566975,114.734673 58.211819,116.317200 59.383881,117.018074 
	C76.443153,127.219299 93.566132,137.314209 110.703293,147.384476 
	C111.705116,147.973160 112.957787,148.134979 114.776215,148.226318 
z"/>
<path fill="#8B8B8B" opacity="1.000000" stroke="none" 
	d="
M57.203999,113.132355 
	C59.998848,108.098892 62.642567,102.974289 65.613831,98.047226 
	C81.247345,72.123192 96.963379,46.248928 112.654060,20.359390 
	C112.821045,20.083874 112.983215,19.738813 113.240204,19.607821 
	C113.412560,19.519962 113.748695,19.753397 113.936005,20.632370 
	C113.841309,23.907499 113.815483,26.393303 113.804070,28.879173 
	C113.712746,48.767361 113.624146,68.655563 113.215607,88.677025 
	C99.961533,94.670059 87.058983,100.603035 74.076309,106.355179 
	C68.538414,108.808815 62.833187,110.884766 57.203999,113.132355 
z"/>
<path fill="#343434" opacity="1.000000" stroke="none" 
	d="
M113.534706,88.543762 
	C113.624146,68.655563 113.712746,48.767361 113.804070,28.879173 
	C113.815483,26.393303 113.841309,23.907499 113.942642,20.917229 
	C132.448151,50.965714 150.871460,81.518631 169.001526,112.485344 
	C165.899261,111.966972 162.983978,111.271103 160.298721,110.063660 
	C144.837601,103.111435 129.430923,96.038147 113.889893,88.888458 
	C113.773987,88.771019 113.534706,88.543762 113.534706,88.543762 
z"/>
<path fill="#393939" opacity="1.000000" stroke="none" 
	d="
M56.940475,113.347260 
	C62.833187,110.884766 68.538414,108.808815 74.076309,106.355179 
	C87.058983,100.603035 99.961533,94.670059 113.215607,88.677025 
	C113.534706,88.543762 113.773987,88.771019 113.869202,89.356094 
	C114.007523,109.459251 114.050621,128.977341 114.093719,148.495453 
	C112.957787,148.134979 111.705116,147.973160 110.703293,147.384476 
	C93.566132,137.314209 76.443153,127.219299 59.383881,117.018074 
	C58.211819,116.317200 57.566975,114.734673 56.940475,113.347260 
z"/>
<path fill="#141414" opacity="1.000000" stroke="none" 
	d="
M114.434967,148.360870 
	C114.050621,128.977341 114.007523,109.459251 113.985107,89.473526 
	C129.430923,96.038147 144.837601,103.111435 160.298721,110.063660 
	C162.983978,111.271103 165.899261,111.966972 169.124359,112.822144 
	C171.832336,115.051994 169.592499,115.728317 168.113419,116.606140 
	C150.339447,127.154800 132.556686,137.688629 114.434967,148.360870 
z"/>
<path fill="#8C8C8C" opacity="1.000000" stroke="none" 
	d="
M115.195557,204.274384 
	C114.760269,205.096771 114.324982,205.919144 113.607933,207.273865 
	C94.750916,180.826736 76.206184,154.817581 57.661449,128.808426 
	C57.935284,128.435867 58.209118,128.063293 58.482952,127.690727 
	C76.748070,138.409424 95.013184,149.128113 113.556198,160.370605 
	C113.831024,173.702499 113.778519,186.510956 113.885597,199.318100 
	C113.899437,200.973724 114.738670,202.622452 115.195557,204.274384 
z"/>
<path fill="#3D3D3C" opacity="1.000000" stroke="none" 
	d="
M115.481201,204.088867 
	C114.738670,202.622452 113.899437,200.973724 113.885597,199.318100 
	C113.778519,186.510956 113.831024,173.702499 113.900742,160.426743 
	C131.000717,149.759003 148.034058,139.558960 165.067398,129.358917 
	C165.529892,129.719345 165.992386,130.079773 166.454865,130.440201 
	C165.385361,132.555206 164.558701,134.841064 163.209274,136.759140 
	C147.440628,159.172546 131.593353,181.530655 115.481201,204.088867 
z"/>
</svg>